<svg xmlns="http://www.w3.org/2000/svg" width="1920" height="1080"><path d="M304,1398L-60,1419L755,1407Z" fill="#c7794b" stroke="#c7794b" stroke-width="1.51"/><path d="M-49,-336L332,-266L919,-302Z" fill="#ffd8b5" stroke="#ffd8b5" stroke-width="1.51"/><path d="M-49,-336L919,-302L1334,-327Z" fill="#ffc99d" stroke="#ffc99d" stroke-width="1.51"/><path d="M-49,-336L1334,-327L1635,-332Z" fill="#ffbf8f" stroke="#ffbf8f" stroke-width="1.51"/><path d="M1496,1312L1171,1391L1798,1307Z" fill="#bd4407" stroke="#bd4407" stroke-width="1.51"/><path d="M1798,1307L1171,1391L1991,1329Z" fill="#b73c03" stroke="#b73c03" stroke-width="1.51"/><path d="M1635,-332L2081,-262L2269,-254Z" fill="#dc926e" stroke="#dc926e" stroke-width="1.51"/><path d="M2112,117L2246,159L2291,-89Z" fill="#ca7f52" stroke="#ca7f52" stroke-width="1.51"/><path d="M2020,925L2253,1209L2291,825Z" fill="#b63d03" stroke="#b63d03" stroke-width="1.51"/><path d="M1942,465L2253,626L2341,417Z" fill="#c86024" stroke="#c86024" stroke-width="1.51"/><path d="M2246,159L1942,465L2341,417Z" fill="#c96b33" stroke="#c96b33" stroke-width="1.51"/><path d="M2291,-89L2246,159L2341,417Z" fill="#c47646" stroke="#c47646" stroke-width="1.51"/><path d="M2253,626L2291,825L2341,417Z" fill="#bf5519" stroke="#bf5519" stroke-width="1.51"/><path d="M1991,1329L1171,1391L2343,1359Z" fill="#a93703" stroke="#a93703" stroke-width="1.51"/><path d="M2253,1209L1991,1329L2343,1359Z" fill="#973004" stroke="#973004" stroke-width="1.51"/><path d="M2341,417L2291,825L2343,1359Z" fill="#b54208" stroke="#b54208" stroke-width="1.51"/><path d="M2291,825L2253,1209L2343,1359Z" fill="#a23403" stroke="#a23403" stroke-width="1.51"/><path d="M2112,117L1942,465L2246,159Z" fill="#cf743f" stroke="#cf743f" stroke-width="1.51"/><path d="M2020,925L1937,1053L2253,1209Z" fill="#b63c03" stroke="#b63c03" stroke-width="1.51"/><path d="M1918,-101L2112,117L2291,-89Z" fill="#d2855b" stroke="#d2855b" stroke-width="1.51"/><path d="M2081,-262L1918,-101L2291,-89Z" fill="#d48c65" stroke="#d48c65" stroke-width="1.51"/><path d="M2269,-254L2081,-262L2291,-89Z" fill="#cd8a68" stroke="#cd8a68" stroke-width="1.51"/><path d="M2253,626L2068,727L2291,825Z" fill="#c14f10" stroke="#c14f10" stroke-width="1.51"/><path d="M2068,727L2020,925L2291,825Z" fill="#c24909" stroke="#c24909" stroke-width="1.51"/><path d="M1942,465L2068,727L2253,626Z" fill="#cb5b1a" stroke="#cb5b1a" stroke-width="1.51"/><path d="M1937,1053L1991,1329L2253,1209Z" fill="#a83703" stroke="#a83703" stroke-width="1.51"/><path d="M1942,465L1822,647L2068,727Z" fill="#d55e1b" stroke="#d55e1b" stroke-width="1.51"/><path d="M1635,-332L1845,-208L2081,-262Z" fill="#e7976f" stroke="#e7976f" stroke-width="1.51"/><path d="M1700,249L1942,465L2112,117Z" fill="#da783d" stroke="#da783d" stroke-width="1.51"/><path d="M1918,-101L1700,249L2112,117Z" fill="#dd8552" stroke="#dd8552" stroke-width="1.51"/><path d="M1842,819L2020,925L2068,727Z" fill="#cc4d08" stroke="#cc4d08" stroke-width="1.51"/><path d="M1845,-208L1918,-101L2081,-262Z" fill="#df916a" stroke="#df916a" stroke-width="1.51"/><path d="M1822,647L1842,819L2068,727Z" fill="#d4560f" stroke="#d4560f" stroke-width="1.51"/><path d="M1855,488L1822,647L1942,465Z" fill="#dc6621" stroke="#dc6621" stroke-width="1.51"/><path d="M1700,249L1855,488L1942,465Z" fill="#e07130" stroke="#e07130" stroke-width="1.51"/><path d="M1937,1053L1798,1307L1991,1329Z" fill="#af3903" stroke="#af3903" stroke-width="1.51"/><path d="M1842,819L1937,1053L2020,925Z" fill="#c94604" stroke="#c94604" stroke-width="1.51"/><path d="M1807,-142L1700,249L1918,-101Z" fill="#e78d5b" stroke="#e78d5b" stroke-width="1.51"/><path d="M1764,1078L1798,1307L1937,1053Z" fill="#bd3e02" stroke="#bd3e02" stroke-width="1.51"/><path d="M1632,-95L1700,249L1807,-142Z" fill="#ee915c" stroke="#ee915c" stroke-width="1.51"/><path d="M1842,819L1764,1078L1937,1053Z" fill="#cd4502" stroke="#cd4502" stroke-width="1.51"/><path d="M1845,-208L1807,-142L1918,-101Z" fill="#e69368" stroke="#e69368" stroke-width="1.51"/><path d="M1632,-95L1542,137L1700,249Z" fill="#f28f55" stroke="#f28f55" stroke-width="1.51"/><path d="M1448,950L1764,1078L1842,819Z" fill="#da4c03" stroke="#da4c03" stroke-width="1.51"/><path d="M1822,647L1547,655L1842,819Z" fill="#e25d12" stroke="#e25d12" stroke-width="1.51"/><path d="M1700,249L1526,346L1855,488Z" fill="#eb7935" stroke="#eb7935" stroke-width="1.51"/><path d="M1547,655L1822,647L1855,488Z" fill="#e4651d" stroke="#e4651d" stroke-width="1.51"/><path d="M1526,346L1547,655L1855,488Z" fill="#ed7027" stroke="#ed7027" stroke-width="1.51"/><path d="M1635,-332L1807,-142L1845,-208Z" fill="#ee996e" stroke="#ee996e" stroke-width="1.51"/><path d="M1547,655L1448,950L1842,819Z" fill="#e65909" stroke="#e65909" stroke-width="1.51"/><path d="M1764,1078L1496,1312L1798,1307Z" fill="#bf3f02" stroke="#bf3f02" stroke-width="1.51"/><path d="M1635,-332L1632,-95L1807,-142Z" fill="#f39a6d" stroke="#f39a6d" stroke-width="1.51"/><path d="M1448,950L1489,1074L1764,1078Z" fill="#da4c03" stroke="#da4c03" stroke-width="1.51"/><path d="M1489,1074L1496,1312L1764,1078Z" fill="#cc4603" stroke="#cc4603" stroke-width="1.51"/><path d="M919,-302L1107,-280L1334,-327Z" fill="#ffb686" stroke="#ffb686" stroke-width="1.51"/><path d="M1542,137L1526,346L1700,249Z" fill="#f18544" stroke="#f18544" stroke-width="1.51"/><path d="M1526,346L1394,428L1547,655Z" fill="#f2782d" stroke="#f2782d" stroke-width="1.51"/><path d="M1408,-3L1542,137L1632,-95Z" fill="#f6975f" stroke="#f6975f" stroke-width="1.51"/><path d="M1334,-327L1408,-3L1632,-95Z" fill="#fba26f" stroke="#fba26f" stroke-width="1.51"/><path d="M1334,-327L1632,-95L1635,-332Z" fill="#faa274" stroke="#faa274" stroke-width="1.51"/><path d="M1303,667L1266,850L1448,950Z" fill="#ee6511" stroke="#ee6511" stroke-width="1.51"/><path d="M1314,1285L1171,1391L1496,1312Z" fill="#c34c0a" stroke="#c34c0a" stroke-width="1.51"/><path d="M1489,1074L1371,1137L1496,1312Z" fill="#ce4b07" stroke="#ce4b07" stroke-width="1.51"/><path d="M1301,170L1526,346L1542,137Z" fill="#f58d4a" stroke="#f58d4a" stroke-width="1.51"/><path d="M1303,667L1448,950L1547,655Z" fill="#ee6512" stroke="#ee6512" stroke-width="1.51"/><path d="M1394,428L1303,667L1547,655Z" fill="#f37423" stroke="#f37423" stroke-width="1.51"/><path d="M1408,-3L1301,170L1542,137Z" fill="#f89759" stroke="#f89759" stroke-width="1.51"/><path d="M1301,170L1394,428L1526,346Z" fill="#f6883f" stroke="#f6883f" stroke-width="1.51"/><path d="M1371,1137L1314,1285L1496,1312Z" fill="#c84c08" stroke="#c84c08" stroke-width="1.51"/><path d="M1448,950L1371,1137L1489,1074Z" fill="#dc5207" stroke="#dc5207" stroke-width="1.51"/><path d="M1334,-327L1107,-280L1408,-3Z" fill="#ffab78" stroke="#ffab78" stroke-width="1.51"/><path d="M1266,850L1371,1137L1448,950Z" fill="#e55909" stroke="#e55909" stroke-width="1.51"/><path d="M1266,850L1080,1118L1371,1137Z" fill="#e45c10" stroke="#e45c10" stroke-width="1.51"/><path d="M1301,170L1059,353L1394,428Z" fill="#f98e45" stroke="#f98e45" stroke-width="1.51"/><path d="M1092,37L1301,170L1408,-3Z" fill="#fca061" stroke="#fca061" stroke-width="1.51"/><path d="M1107,-280L1092,37L1408,-3Z" fill="#ffaa72" stroke="#ffaa72" stroke-width="1.51"/><path d="M1049,577L1303,667L1394,428Z" fill="#f87d2b" stroke="#f87d2b" stroke-width="1.51"/><path d="M1059,353L1049,577L1394,428Z" fill="#fa893b" stroke="#fa893b" stroke-width="1.51"/><path d="M1080,1118L1314,1285L1371,1137Z" fill="#d3550f" stroke="#d3550f" stroke-width="1.51"/><path d="M1051,202L1059,353L1301,170Z" fill="#fc9a53" stroke="#fc9a53" stroke-width="1.51"/><path d="M1101,808L1080,1118L1266,850Z" fill="#ed6719" stroke="#ed6719" stroke-width="1.51"/><path d="M1101,808L1266,850L1303,667Z" fill="#f36e19" stroke="#f36e19" stroke-width="1.51"/><path d="M1080,1118L1171,1391L1314,1285Z" fill="#cb5513" stroke="#cb5513" stroke-width="1.51"/><path d="M1092,37L1051,202L1301,170Z" fill="#fda15e" stroke="#fda15e" stroke-width="1.51"/><path d="M1049,577L1101,808L1303,667Z" fill="#f77927" stroke="#f77927" stroke-width="1.51"/><path d="M919,-302L1092,37L1107,-280Z" fill="#ffb682" stroke="#ffb682" stroke-width="1.51"/><path d="M1080,1118L800,1169L1171,1391Z" fill="#d25f1d" stroke="#d25f1d" stroke-width="1.51"/><path d="M800,1169L755,1407L1171,1391Z" fill="#ca6123" stroke="#ca6123" stroke-width="1.51"/><path d="M886,560L1049,577L1059,353Z" fill="#fd8e3f" stroke="#fd8e3f" stroke-width="1.51"/><path d="M923,335L886,560L1059,353Z" fill="#fe9649" stroke="#fe9649" stroke-width="1.51"/><path d="M919,-302L751,-39L1092,37Z" fill="#ffb982" stroke="#ffb982" stroke-width="1.51"/><path d="M1049,577L886,560L1101,808Z" fill="#fa8331" stroke="#fa8331" stroke-width="1.51"/><path d="M886,560L795,878L1101,808Z" fill="#f87f2e" stroke="#f87f2e" stroke-width="1.51"/><path d="M795,878L1080,1118L1101,808Z" fill="#ef6f23" stroke="#ef6f23" stroke-width="1.51"/><path d="M795,878L800,1169L1080,1118Z" fill="#e76d27" stroke="#e76d27" stroke-width="1.51"/><path d="M1051,202L923,335L1059,353Z" fill="#fd9c53" stroke="#fd9c53" stroke-width="1.51"/><path d="M761,189L1051,202L1092,37Z" fill="#ffa967" stroke="#ffa967" stroke-width="1.51"/><path d="M751,-39L761,189L1092,37Z" fill="#ffb476" stroke="#ffb476" stroke-width="1.51"/><path d="M332,-266L610,-182L919,-302Z" fill="#ffcca0" stroke="#ffcca0" stroke-width="1.51"/><path d="M761,189L923,335L1051,202Z" fill="#fea55f" stroke="#fea55f" stroke-width="1.51"/><path d="M795,878L687,1079L800,1169Z" fill="#e97530" stroke="#e97530" stroke-width="1.51"/><path d="M548,660L795,878L886,560Z" fill="#fa8b3f" stroke="#fa8b3f" stroke-width="1.51"/><path d="M610,-182L751,-39L919,-302Z" fill="#ffc393" stroke="#ffc393" stroke-width="1.51"/><path d="M587,491L886,560L923,335Z" fill="#fe9a4f" stroke="#fe9a4f" stroke-width="1.51"/><path d="M761,189L587,491L923,335Z" fill="#fea55e" stroke="#fea55e" stroke-width="1.51"/><path d="M587,491L548,660L886,560Z" fill="#fd984d" stroke="#fd984d" stroke-width="1.51"/><path d="M531,1311L304,1398L755,1407Z" fill="#c8713d" stroke="#c8713d" stroke-width="1.51"/><path d="M525,187L587,491L761,189Z" fill="#fdae6c" stroke="#fdae6c" stroke-width="1.51"/><path d="M751,-39L523,45L761,189Z" fill="#febc82" stroke="#febc82" stroke-width="1.51"/><path d="M576,905L687,1079L795,878Z" fill="#f07d38" stroke="#f07d38" stroke-width="1.51"/><path d="M548,660L576,905L795,878Z" fill="#f7893f" stroke="#f7893f" stroke-width="1.51"/><path d="M531,1311L755,1407L800,1169Z" fill="#cd6d32" stroke="#cd6d32" stroke-width="1.51"/><path d="M687,1079L531,1311L800,1169Z" fill="#d97235" stroke="#d97235" stroke-width="1.51"/><path d="M523,45L525,187L761,189Z" fill="#feba7e" stroke="#feba7e" stroke-width="1.51"/><path d="M610,-182L523,45L751,-39Z" fill="#ffc491" stroke="#ffc491" stroke-width="1.51"/><path d="M548,660L472,843L576,905Z" fill="#f88e48" stroke="#f88e48" stroke-width="1.51"/><path d="M525,187L433,369L587,491Z" fill="#feb06e" stroke="#feb06e" stroke-width="1.51"/><path d="M457,-23L523,45L610,-182Z" fill="#ffc898" stroke="#ffc898" stroke-width="1.51"/><path d="M576,905L419,1106L687,1079Z" fill="#ec7f3e" stroke="#ec7f3e" stroke-width="1.51"/><path d="M419,1106L531,1311L687,1079Z" fill="#dc793e" stroke="#dc793e" stroke-width="1.51"/><path d="M91,1374L-60,1419L304,1398Z" fill="#ca8259" stroke="#ca8259" stroke-width="1.51"/><path d="M332,-266L457,-23L610,-182Z" fill="#ffd0a6" stroke="#ffd0a6" stroke-width="1.51"/><path d="M472,843L419,1106L576,905Z" fill="#f18746" stroke="#f18746" stroke-width="1.51"/><path d="M325,565L548,660L587,491Z" fill="#fea15b" stroke="#fea15b" stroke-width="1.51"/><path d="M433,369L325,565L587,491Z" fill="#feaa67" stroke="#feaa67" stroke-width="1.51"/><path d="M325,565L472,843L548,660Z" fill="#fc9a56" stroke="#fc9a56" stroke-width="1.51"/><path d="M457,-23L317,215L523,45Z" fill="#fec793" stroke="#fec793" stroke-width="1.51"/><path d="M523,45L317,215L525,187Z" fill="#fec189" stroke="#fec189" stroke-width="1.51"/><path d="M317,215L433,369L525,187Z" fill="#febb7e" stroke="#febb7e" stroke-width="1.51"/><path d="M419,1106L304,1398L531,1311Z" fill="#d27a46" stroke="#d27a46" stroke-width="1.51"/><path d="M153,886L216,1125L419,1106Z" fill="#ed8d56" stroke="#ed8d56" stroke-width="1.51"/><path d="M216,1125L304,1398L419,1106Z" fill="#d9834f" stroke="#d9834f" stroke-width="1.51"/><path d="M332,-266L129,-68L457,-23Z" fill="#fed6af" stroke="#fed6af" stroke-width="1.51"/><path d="M153,886L419,1106L472,843Z" fill="#f38e51" stroke="#f38e51" stroke-width="1.51"/><path d="M325,565L153,886L472,843Z" fill="#fb9c5a" stroke="#fb9c5a" stroke-width="1.51"/><path d="M214,429L325,565L433,369Z" fill="#ffb173" stroke="#ffb173" stroke-width="1.51"/><path d="M129,-68L317,215L457,-23Z" fill="#fdcfa1" stroke="#fdcfa1" stroke-width="1.51"/><path d="M-49,-336L113,-222L332,-266Z" fill="#ffe2c6" stroke="#ffe2c6" stroke-width="1.51"/><path d="M317,215L214,429L433,369Z" fill="#feba7e" stroke="#feba7e" stroke-width="1.51"/><path d="M216,1125L91,1374L304,1398Z" fill="#d18355" stroke="#d18355" stroke-width="1.51"/><path d="M129,-68L63,174L317,215Z" fill="#fed0a3" stroke="#fed0a3" stroke-width="1.51"/><path d="M87,576L153,886L325,565Z" fill="#fea76a" stroke="#fea76a" stroke-width="1.51"/><path d="M113,-222L129,-68L332,-266Z" fill="#feddbd" stroke="#feddbd" stroke-width="1.51"/><path d="M63,174L214,429L317,215Z" fill="#fec38e" stroke="#fec38e" stroke-width="1.51"/><path d="M214,429L87,576L325,565Z" fill="#ffb174" stroke="#ffb174" stroke-width="1.51"/><path d="M-14,431L87,576L214,429Z" fill="#ffb880" stroke="#ffb880" stroke-width="1.51"/><path d="M63,174L-14,431L214,429Z" fill="#ffc18d" stroke="#ffc18d" stroke-width="1.51"/><path d="M153,886L-55,1153L216,1125Z" fill="#ed915f" stroke="#ed915f" stroke-width="1.51"/><path d="M-55,1153L91,1374L216,1125Z" fill="#db8a5d" stroke="#db8a5d" stroke-width="1.51"/><path d="M-125,926L-55,1153L153,886Z" fill="#f59867" stroke="#f59867" stroke-width="1.51"/><path d="M87,576L-144,608L153,886Z" fill="#ffab73" stroke="#ffab73" stroke-width="1.51"/><path d="M-144,608L-125,926L153,886Z" fill="#fea570" stroke="#fea570" stroke-width="1.51"/><path d="M-106,-137L-116,199L63,174Z" fill="#fed9b4" stroke="#fed9b4" stroke-width="1.51"/><path d="M113,-222L-106,-137L129,-68Z" fill="#fee0c3" stroke="#fee0c3" stroke-width="1.51"/><path d="M-106,-137L63,174L129,-68Z" fill="#fedab7" stroke="#fedab7" stroke-width="1.51"/><path d="M-116,199L-14,431L63,174Z" fill="#ffca9c" stroke="#ffca9c" stroke-width="1.51"/><path d="M-55,1153L-60,1419L91,1374Z" fill="#d28862" stroke="#d28862" stroke-width="1.51"/><path d="M-49,-336L-106,-137L113,-222Z" fill="#fee5cd" stroke="#fee5cd" stroke-width="1.51"/><path d="M-14,431L-144,608L87,576Z" fill="#ffb781" stroke="#ffb781" stroke-width="1.51"/><path d="M-144,608L-238,890L-125,926Z" fill="#ffa876" stroke="#ffa876" stroke-width="1.51"/><path d="M-379,-33L-116,199L-106,-137Z" fill="#fee0c1" stroke="#fee0c1" stroke-width="1.51"/><path d="M-280,1191L-60,1419L-55,1153Z" fill="#d88e69" stroke="#d88e69" stroke-width="1.51"/><path d="M-116,199L-267,369L-14,431Z" fill="#ffc89b" stroke="#ffc89b" stroke-width="1.51"/><path d="M-267,369L-144,608L-14,431Z" fill="#ffc08e" stroke="#ffc08e" stroke-width="1.51"/><path d="M-267,369L-275,557L-144,608Z" fill="#ffbf8d" stroke="#ffbf8d" stroke-width="1.51"/><path d="M-280,1191L-308,1390L-60,1419Z" fill="#d28d6b" stroke="#d28d6b" stroke-width="1.51"/><path d="M-125,926L-280,1191L-55,1153Z" fill="#eb976d" stroke="#eb976d" stroke-width="1.51"/><path d="M-291,-328L-106,-137L-49,-336Z" fill="#ffead6" stroke="#ffead6" stroke-width="1.51"/><path d="M-275,557L-238,890L-144,608Z" fill="#ffb280" stroke="#ffb280" stroke-width="1.51"/><path d="M-238,890L-280,1191L-125,926Z" fill="#f69d71" stroke="#f69d71" stroke-width="1.51"/><path d="M-379,-33L-426,129L-116,199Z" fill="#ffddbd" stroke="#ffddbd" stroke-width="1.51"/><path d="M-291,-328L-379,-33L-106,-137Z" fill="#ffe9d4" stroke="#ffe9d4" stroke-width="1.51"/><path d="M-426,129L-267,369L-116,199Z" fill="#ffd3ac" stroke="#ffd3ac" stroke-width="1.51"/><path d="M-275,557L-280,1191L-238,890Z" fill="#fca677" stroke="#fca677" stroke-width="1.51"/><path d="M-426,129L-280,1191L-275,557Z" fill="#ffb888" stroke="#ffb888" stroke-width="1.51"/><path d="M-426,129L-275,557L-267,369Z" fill="#ffcca0" stroke="#ffcca0" stroke-width="1.51"/><path d="M-426,129L-308,1390L-280,1191Z" fill="#fca579" stroke="#fca579" stroke-width="1.51"/></svg>